<?xml version="1.0" encoding="UTF-8" standalone="no"?>
<svg xmlns="http://www.w3.org/2000/svg" xmlns:xlink="http://www.w3.org/1999/xlink">
    <title>Askøy Fotballklubb Logo Text</title>
    <desc>What she said</desc>
    <defs>

        <style type="text/css">
            svg {
                fill: #fff;
            }


            @media screen and (max-width: 350px) {
                #two-lines {
                    display: block;
                }

                #one-line {
                    display: none;
                }
            }

            @media screen and (min-width: 351px) {
                #two-lines {
                    display: none;
                }

                #one-line {
                    display: block;
                }
            }

            @media screen and (min-height: 100px) {
                #two-lines {
                    display: block;
                }

                #one-line {
                    display: none;
                }
            }

            @media screen and (min-width: 600px) {
                #two-lines {
                    display: none;
                }

                #one-line {
                    display: block;
                }
            }


        </style>


        <path id="askoy" d="M47.466,14.854 L55.947,37.337 L65.455,46.35 L28.519,46.35 L40.01,38.477 L39.121,35.887 L22.226,35.887 L20.448,38.477 L27.972,46.35 L0.543,46.35 L10.735,37.337 L26.672,14.854 L20.995,7.705 L55.742,7.705 L47.466,14.854 L47.466,14.854 Z M26.125,29.567 L36.864,29.567 L33.17,18.998 L26.125,29.567 L26.125,29.567 Z M70.448,28.531 C70.858,29.463 71.406,30.395 71.953,31.328 C72.5,32.156 73.116,32.986 73.8,33.814 C75.305,35.472 77.22,36.819 79.614,37.959 C81.939,38.995 84.333,39.824 86.864,40.342 C88.3,40.652 89.6,40.86 90.968,41.067 C92.268,41.171 93.567,41.274 94.798,41.274 L96.508,41.274 C97.261,41.274 98.013,41.274 98.834,41.067 C99.928,40.86 100.886,40.548 101.912,40.135 C102.801,39.72 103.349,39.099 103.553,38.27 L103.553,37.959 L103.553,37.855 C103.553,37.44 103.485,37.026 103.143,36.819 C102.938,36.508 102.664,36.197 102.391,36.093 C102.322,36.093 102.254,36.093 102.186,35.99 L102.049,35.99 C101.638,35.887 101.296,35.783 100.818,35.679 C100.339,35.576 99.86,35.576 99.381,35.472 L98.629,35.472 C98.355,35.472 98.15,35.472 97.876,35.368 L97.534,35.368 L97.261,35.368 L90.968,34.643 C89.805,34.539 88.437,34.436 86.796,34.229 C85.222,34.022 83.581,33.711 81.802,33.296 C78.93,32.571 76.262,31.432 73.731,29.774 C71.337,28.116 70.175,25.63 70.106,22.314 C70.106,22.003 70.106,21.692 70.175,21.278 C70.175,20.967 70.243,20.553 70.311,20.138 C70.653,18.17 71.337,16.305 72.363,14.543 C73.389,12.782 74.62,11.331 76.057,10.191 C77.425,9.052 78.793,8.327 80.298,7.602 C81.802,7.083 83.376,6.67 84.949,6.358 C86.385,6.048 87.753,5.944 89.121,5.944 C90.558,5.84 91.857,5.84 93.088,5.84 C95.551,5.84 97.945,6.048 100.202,6.67 C102.527,7.29 104.716,8.12 106.905,9.363 L115.66,5.944 L112.924,22.314 C109.71,19.102 106.221,16.616 102.459,15.061 C98.834,13.404 94.73,12.574 90.079,12.574 C89.669,12.574 89.121,12.574 88.506,12.678 C87.89,12.678 87.275,12.678 86.59,12.782 C85.496,12.885 84.402,13.196 83.376,13.611 C82.35,13.922 81.802,14.543 81.666,15.476 C81.666,15.476 81.666,15.476 81.597,15.579 C81.597,15.579 81.597,15.579 81.597,15.683 C81.597,15.683 81.597,15.683 81.597,15.786 C81.597,15.786 81.597,15.786 81.597,15.89 C81.597,16.408 81.734,16.823 82.076,17.133 C82.35,17.34 82.692,17.548 83.102,17.755 C83.17,17.755 83.239,17.755 83.376,17.962 C83.513,17.962 83.649,17.962 83.718,18.066 C84.812,18.274 85.838,18.48 86.932,18.687 C88.027,18.791 89.053,18.895 90.147,19.102 L96.235,19.724 C97.329,19.828 98.629,19.931 100.133,20.138 C101.638,20.345 103.143,20.656 104.716,21.071 C107.589,21.692 110.257,22.935 112.651,24.593 C115.045,26.251 116.208,28.737 116.276,32.156 C116.276,32.467 116.276,32.779 116.208,33.192 C116.208,33.607 116.208,33.918 116.071,34.436 C115.66,36.923 114.634,39.099 112.993,41.171 C111.42,42.932 109.71,44.383 107.794,45.315 C105.4,46.558 103.007,47.283 100.544,47.698 C98.15,48.008 95.756,48.216 93.431,48.216 C90.284,48.216 87.138,47.905 84.06,47.18 C81.119,46.454 78.177,45.418 75.373,44.175 L67.096,47.905 L70.448,28.531 L70.448,28.531 Z M168.192,21.588 L175.716,37.337 L184.128,46.35 L150.613,46.35 L160.872,38.062 L156.427,28.944 L143.841,35.783 L143.567,37.337 L150.134,46.35 L116.071,46.35 L128.383,37.337 L131.871,16.72 L122.706,7.705 L156.427,7.705 L147.193,16.097 L145.346,26.769 L164.156,15.476 L157.931,7.705 L190.285,7.705 L168.192,21.588 L168.192,21.588 Z M296.783,15.476 L280.503,32.467 L279.683,37.337 L288.917,46.35 L252.459,46.35 L264.772,37.337 L265.592,32.467 L254.718,14.854 L246.168,7.705 L280.709,7.705 L272.09,14.854 L278.315,24.179 L287.617,14.128 L281.325,7.705 L307.864,7.705 L296.783,15.476 L296.783,15.476 Z M242.336,17.548 C240.9,15.373 239.326,13.611 237.618,12.16 L237.48,12.16 L237.412,11.953 C235.77,10.71 233.992,9.571 232.146,8.845 L237.822,0.245 L230.983,0.349 L226.605,7.083 C224.553,6.67 222.501,6.462 220.38,6.462 C218.67,6.462 217.029,6.566 215.319,6.772 C213.608,6.98 211.899,7.394 210.257,7.809 C208.821,8.12 207.522,8.637 206.153,9.259 C204.785,9.777 203.486,10.399 202.117,11.227 C201.638,11.435 201.091,11.746 200.612,12.057 C200.134,12.368 199.655,12.678 199.108,12.989 C196.645,14.75 194.389,16.927 192.2,19.517 C190.079,22.107 188.711,25.111 188.164,28.531 C188.095,28.841 188.027,29.255 188.027,29.567 C187.958,29.878 187.958,30.291 187.958,30.602 C187.958,33.607 188.917,36.197 190.763,38.58 C192.541,40.86 194.593,42.725 196.851,44.072 C197.74,44.694 198.56,45.107 199.451,45.522 C199.929,45.729 200.34,45.937 200.75,46.144 L195.619,53.914 L202.254,54.121 L206.496,47.698 L206.631,47.698 C208.342,48.008 209.984,48.216 211.625,48.216 L212.241,48.216 L212.857,48.216 C214.634,48.216 216.686,48.008 219.013,47.595 C221.475,47.18 223.937,46.558 226.4,45.729 C230.504,44.279 234.265,42.206 237.753,39.305 C241.31,36.404 243.5,32.571 244.253,27.909 C244.388,27.494 244.388,26.977 244.388,26.562 C244.457,26.043 244.457,25.63 244.457,25.215 C244.457,22.314 243.772,19.724 242.336,17.548 L242.336,17.548 Z M205.811,30.706 L205.811,28.841 C205.949,28.22 206.017,27.494 206.084,26.873 C206.769,23.039 208.342,19.828 210.736,17.133 C213.267,14.439 215.935,13.196 218.876,13.196 C220.039,13.196 221.134,13.404 222.091,13.819 L207.043,36.612 C206.221,34.954 205.811,32.986 205.811,30.706 L205.811,30.706 Z M227.016,26.215 C226.947,26.836 226.878,27.354 226.81,27.873 C226.058,32.121 224.622,35.436 222.364,37.923 C220.039,40.513 217.302,41.756 214.155,41.756 C213.129,41.756 212.172,41.652 211.352,41.342 L226.058,19.066 C226.741,20.62 227.153,22.484 227.153,24.557 C227.084,25.076 227.084,25.593 227.016,26.215 L227.016,26.215 Z"></path>
        <path id="fotballklubb" d="M63.897,1.591 L60.751,19.929 L51.38,8.532 L31.612,8.532 L30.313,16.095 L41.052,16.095 L50.149,11.64 L47.003,29.979 L39.684,24.28 L28.877,24.28 L27.851,30.601 L36.948,39.511 L0.833,39.511 L12.871,30.601 L16.359,10.397 L7.331,1.591 L63.897,1.591 L63.897,1.591 Z M103.159,1.591 C106.032,2.419 108.63,3.869 111.024,5.735 C111.024,5.735 111.024,5.735 111.093,5.838 C111.093,5.838 111.161,5.838 111.23,5.942 C112.872,7.289 114.445,9.05 115.881,11.226 C117.317,13.298 117.933,15.888 117.933,18.789 C117.933,19.1 117.933,19.515 117.865,20.032 C117.865,20.551 117.865,20.965 117.728,21.379 C116.975,25.938 114.855,29.669 111.367,32.57 C107.947,35.367 104.253,37.438 100.286,38.889 C97.755,39.718 95.361,40.236 92.967,40.754 C90.641,41.169 88.658,41.272 86.948,41.376 L86.332,41.376 L85.717,41.376 C84.075,41.272 82.502,41.169 80.792,40.754 C79.219,40.547 77.714,40.133 76.141,39.615 C75.388,39.407 74.636,39.096 73.747,38.682 C72.926,38.268 72.105,37.853 71.216,37.232 C69.027,35.884 67.043,34.124 65.197,31.844 C63.418,29.565 62.529,26.975 62.529,24.074 L62.529,23.037 C62.598,22.623 62.598,22.312 62.666,22.001 C63.282,18.582 64.581,15.681 66.702,13.091 C68.754,10.605 71.011,8.532 73.473,6.77 C73.952,6.46 74.431,6.149 74.91,5.838 C75.388,5.527 75.867,5.216 76.415,5.01 C77.714,4.181 79.014,3.559 80.382,3.041 C81.681,2.419 82.98,2.006 84.349,1.694 C85.99,1.176 87.632,0.865 89.342,0.658 C90.984,0.451 92.693,0.244 94.335,0.244 C97.345,0.244 100.286,0.658 103.159,1.591 L103.159,1.591 Z M80.04,22.312 C79.971,22.83 79.971,23.452 79.971,24.074 C79.971,27.078 80.723,29.461 82.16,31.326 C83.596,33.087 85.58,33.916 88.179,34.02 C91.326,34.02 93.993,32.777 96.25,30.289 C98.439,27.7 99.944,24.487 100.628,20.447 C100.696,19.825 100.765,19.308 100.833,18.789 C100.902,18.168 100.902,17.65 100.902,17.131 C100.902,14.127 100.217,11.64 98.713,9.775 C97.276,7.911 95.293,6.978 92.83,6.874 C89.957,6.874 87.29,8.221 84.896,10.812 C82.502,13.402 80.997,16.614 80.313,20.447 C80.245,21.069 80.108,21.69 80.04,22.312 L80.04,22.312 Z M170.396,19.929 L161.298,8.324 L154.595,8.324 L150.833,30.601 L159.862,39.511 L123.816,39.511 L135.922,30.601 L139.684,8.324 L132.981,8.324 L119.917,19.929 L124.021,1.591 L172.516,1.591 L170.396,19.929 L170.396,19.929 Z M216.429,1.591 C218.207,1.591 219.986,1.694 221.764,1.901 C223.474,2.212 225.047,2.834 226.552,3.973 C226.688,4.077 226.825,4.181 227.099,4.388 C227.236,4.492 227.373,4.595 227.578,4.802 C228.262,5.423 228.809,6.253 229.425,7.185 C229.972,8.117 230.245,9.154 230.245,10.293 L230.245,10.501 L230.245,10.708 C230.245,10.812 230.245,10.916 230.177,11.018 L230.177,11.226 C229.835,13.298 228.946,14.853 227.305,16.095 C225.731,17.235 224.021,18.064 222.174,18.582 C221.08,18.996 219.986,19.204 218.823,19.411 C217.797,19.619 216.907,19.722 216.087,19.929 C216.77,20.032 217.592,20.136 218.618,20.343 C219.575,20.551 220.601,20.758 221.559,21.069 C223.474,21.69 225.184,22.519 226.825,23.659 C228.399,24.799 229.151,26.456 229.151,28.632 L229.151,29.15 C229.151,29.254 229.151,29.461 229.082,29.669 C228.809,31.636 227.988,33.295 226.688,34.745 C225.389,36.092 224.021,37.025 222.516,37.749 C222.311,37.853 222.037,37.957 221.764,38.06 C221.559,38.164 221.285,38.268 221.012,38.372 C219.301,38.889 217.592,39.2 215.813,39.407 C214.171,39.511 212.53,39.511 210.82,39.511 L167.933,39.511 L179.972,30.601 L183.46,10.397 L174.431,1.591 L216.429,1.591 L216.429,1.591 Z M206.442,32.57 L207.605,32.57 C208.016,32.57 208.494,32.57 208.905,32.362 C209.794,32.258 210.683,31.948 211.504,31.429 C212.325,30.808 212.872,29.876 213.145,28.425 C213.145,28.218 213.145,28.114 213.214,27.907 L213.214,27.492 C213.214,26.249 212.804,25.421 212.051,24.799 C211.299,24.28 210.478,23.97 209.589,23.97 C209.588,23.97 209.589,23.97 209.52,23.97 C209.52,23.97 209.52,23.97 209.452,23.97 L196.045,23.97 L194.609,32.57 L206.442,32.57 L206.442,32.57 Z M209.383,16.51 L210.136,16.51 C210.478,16.51 210.683,16.51 211.025,16.303 C211.846,16.199 212.667,15.888 213.419,15.37 C214.171,14.749 214.65,13.817 214.856,12.572 C214.924,12.469 214.924,12.263 214.992,12.055 L214.992,11.537 C214.992,10.397 214.65,9.568 213.83,9.05 C213.145,8.636 212.325,8.429 211.367,8.221 L211.025,8.221 L210.683,8.221 L198.713,8.221 L197.345,16.51 L209.383,16.51 L209.383,16.51 Z M271.764,8.532 L280.04,30.601 L289.411,39.511 L253.091,39.511 L264.445,31.74 L263.556,29.15 L247.003,29.15 L245.225,31.74 L252.612,39.511 L225.731,39.511 L235.718,30.601 L251.313,8.532 L245.772,1.591 L279.835,1.591 L271.764,8.532 L271.764,8.532 Z M250.834,23.037 L261.367,23.037 L257.674,12.676 L250.834,23.037 L250.834,23.037 Z M343.31,39.511 L287.154,39.511 L299.193,30.601 L302.681,10.397 L293.652,1.591 L329.699,1.591 L317.592,10.397 L313.898,31.948 L331.682,31.948 L346.799,19.1 L343.31,39.511 L343.31,39.511 Z M400.697,39.511 L344.541,39.511 L356.58,30.601 L360.068,10.397 L351.039,1.591 L387.017,1.591 L374.979,10.397 L371.287,31.948 L389.001,31.948 L404.186,19.1 L400.697,39.511 L400.697,39.511 Z M453.023,15.163 L460.479,30.601 L468.687,39.511 L435.855,39.511 L445.909,31.326 L441.533,22.416 L429.153,29.15 L428.878,30.601 L435.307,39.511 L401.861,39.511 L413.968,30.601 L417.387,10.397 L408.359,1.591 L441.533,1.591 L432.435,9.775 L430.658,20.24 L449.125,9.154 L442.969,1.591 L474.706,1.591 L453.023,15.163 L453.023,15.163 Z M524.639,39.511 L468.481,39.511 L480.52,30.601 L484.008,10.397 L474.979,1.591 L511.027,1.591 L498.92,10.397 L495.226,31.948 L513.01,31.948 L528.127,19.1 L524.639,39.511 L524.639,39.511 Z M583.804,10.397 L581.067,26.664 C581.067,26.767 581.067,26.871 580.932,27.078 C580.932,27.181 580.932,27.388 580.863,27.596 C580.588,29.15 580.11,30.601 579.358,32.155 C578.674,33.605 577.853,34.848 576.69,35.988 C575.46,37.232 573.886,38.164 572.038,38.889 C570.192,39.615 568.346,40.133 566.431,40.547 C564.652,40.858 563.01,41.065 561.301,41.169 C559.659,41.272 558.154,41.376 556.922,41.376 C555.964,41.376 555.007,41.272 553.912,41.169 C552.886,41.169 551.929,40.961 550.836,40.754 C548.168,40.34 545.637,39.511 543.243,38.164 C540.848,36.921 539.002,35.056 537.703,32.57 C537.428,32.051 537.224,31.533 537.087,30.912 C536.95,30.289 536.95,29.772 536.881,29.15 C536.881,28.735 536.881,28.322 536.95,27.907 C536.95,27.492 537.018,27.078 537.156,26.664 L539.891,10.397 L530.862,1.591 L565.952,1.591 L554.803,10.397 L552.341,24.799 C552.272,25.317 552.203,25.731 552.135,26.249 C552.135,26.664 552.135,27.078 552.066,27.492 C552.066,28.218 552.135,28.839 552.341,29.565 C552.476,30.186 552.751,30.808 553.229,31.326 C553.64,31.948 554.324,32.362 555.144,32.673 C555.964,33.087 556.855,33.295 557.744,33.398 C558.36,33.502 558.907,33.605 559.521,33.709 C560.069,33.709 560.616,33.709 561.095,33.813 C561.642,33.813 562.258,33.813 563.078,33.709 C563.832,33.605 564.583,33.502 565.405,33.295 C566.156,33.19 566.977,32.88 567.799,32.57 C568.55,32.258 569.166,31.948 569.782,31.533 C570.808,30.808 571.56,29.772 572.107,28.632 C572.586,27.388 572.929,26.146 573.202,24.799 L575.664,10.397 L567.593,1.591 L595.911,1.591 L583.804,10.397 L583.804,10.397 Z M637.156,1.591 C638.933,1.591 640.713,1.694 642.422,1.901 C644.201,2.212 645.774,2.834 647.279,3.973 C647.417,4.077 647.552,4.181 647.758,4.388 C647.962,4.492 648.099,4.595 648.305,4.802 C648.921,5.423 649.535,6.253 650.083,7.185 C650.699,8.117 650.972,9.154 650.972,10.293 L650.972,10.501 L650.972,10.708 C650.972,10.812 650.972,10.916 650.905,11.018 L650.905,11.226 C650.562,13.298 649.604,14.853 648.031,16.095 C646.457,17.235 644.748,18.064 642.902,18.582 C641.739,18.996 640.644,19.204 639.549,19.411 C638.523,19.619 637.566,19.722 636.746,19.929 C637.497,20.032 638.319,20.136 639.345,20.343 C640.303,20.551 641.26,20.758 642.286,21.069 C644.201,21.69 645.912,22.519 647.483,23.659 C649.125,24.799 649.879,26.456 649.879,28.632 L649.879,29.15 C649.879,29.254 649.879,29.461 649.81,29.669 C649.535,31.636 648.715,33.295 647.348,34.745 C646.116,36.092 644.748,37.025 643.244,37.749 C643.038,37.853 642.765,37.957 642.49,38.06 C642.286,38.164 642.012,38.268 641.739,38.372 C640.028,38.889 638.25,39.2 636.54,39.407 C634.898,39.511 633.257,39.511 631.478,39.511 L588.659,39.511 L600.698,30.601 L604.186,10.397 L595.157,1.591 L637.156,1.591 L637.156,1.591 Z M627.17,32.57 L628.333,32.57 C628.743,32.57 629.153,32.57 629.632,32.362 C630.521,32.258 631.409,31.948 632.231,31.429 C633.052,30.808 633.599,29.876 633.805,28.425 C633.872,28.218 633.872,28.114 633.94,27.907 L633.94,27.492 C633.94,26.249 633.53,25.421 632.779,24.799 C632.026,24.28 631.205,23.97 630.317,23.97 C630.317,23.97 630.317,23.97 630.248,23.97 C630.248,23.97 630.248,23.97 630.179,23.97 L616.772,23.97 L615.267,32.57 L627.17,32.57 L627.17,32.57 Z M630.042,16.51 L630.862,16.51 C631.137,16.51 631.409,16.51 631.753,16.303 C632.573,16.199 633.326,15.888 634.146,15.37 C634.898,14.749 635.376,13.817 635.582,12.572 C635.651,12.469 635.651,12.263 635.651,12.055 C635.651,11.952 635.651,11.744 635.72,11.537 C635.72,10.397 635.31,9.568 634.556,9.05 C633.805,8.636 633.052,8.429 632.094,8.221 L631.753,8.221 L631.409,8.221 L619.44,8.221 L618.072,16.51 L630.042,16.51 L630.042,16.51 Z M697.826,1.591 C699.605,1.591 701.383,1.694 703.093,1.901 C704.802,2.212 706.444,2.834 707.949,3.973 C708.086,4.077 708.224,4.181 708.428,4.388 C708.565,4.492 708.771,4.595 708.975,4.802 C709.591,5.423 710.207,6.253 710.755,7.185 C711.369,8.117 711.575,9.154 711.643,10.293 L711.643,10.501 C711.643,10.501 711.643,10.605 711.575,10.708 L711.575,11.018 L711.575,11.226 C711.233,13.298 710.276,14.853 708.702,16.095 C707.06,17.235 705.418,18.064 703.572,18.582 C702.409,18.996 701.314,19.204 700.221,19.411 C699.126,19.619 698.236,19.722 697.416,19.929 C698.169,20.032 698.989,20.136 700.015,20.343 C700.972,20.551 701.93,20.758 702.956,21.069 C704.802,21.69 706.582,22.519 708.155,23.659 C709.729,24.799 710.549,26.456 710.549,28.632 C710.549,28.735 710.549,28.943 710.48,29.15 L710.48,29.669 C710.207,31.636 709.385,33.295 708.018,34.745 C706.786,36.092 705.418,37.025 703.914,37.749 C703.641,37.853 703.435,37.957 703.162,38.06 C702.887,38.164 702.683,38.268 702.409,38.372 C700.631,38.889 698.92,39.2 697.211,39.407 C695.569,39.511 693.927,39.511 692.15,39.511 L649.331,39.511 L661.37,30.601 L664.858,10.397 L655.829,1.591 L697.826,1.591 L697.826,1.591 Z M687.84,32.57 L689.003,32.57 C689.413,32.57 689.823,32.57 690.302,32.362 C691.191,32.258 692.081,31.948 692.901,31.429 C693.721,30.808 694.202,29.876 694.475,28.425 C694.543,28.218 694.543,28.114 694.543,27.907 L694.543,27.492 C694.543,26.249 694.202,25.421 693.449,24.799 C692.697,24.28 691.875,23.97 690.987,23.97 C690.987,23.97 690.987,23.97 690.918,23.97 C690.918,23.97 690.918,23.97 690.849,23.97 L677.443,23.97 L675.939,32.57 L687.84,32.57 L687.84,32.57 Z M690.712,16.51 L691.534,16.51 C691.807,16.51 692.081,16.51 692.423,16.303 C693.243,16.199 693.996,15.888 694.816,15.37 C695.569,14.749 696.048,13.817 696.252,12.572 C696.321,12.469 696.321,12.263 696.321,12.055 C696.321,11.952 696.321,11.744 696.39,11.537 C696.39,10.397 695.98,9.568 695.226,9.05 C694.475,8.636 693.721,8.429 692.764,8.221 L692.423,8.221 L692.081,8.221 L680.112,8.221 L678.674,16.51 L690.712,16.51 L690.712,16.51 Z"></path>
    </defs>

    <g id="one-line">
        <svg viewBox="-338 0 1050 42" preserveAspectRatio="xMinYMid meet" xmlns:xlink="http://www.w3.org/1999/xlink">
            <use xlink:href="#fotballklubb" ></use>
        </svg>

        <svg viewBox="0 0 1050 55" preserveAspectRatio="xMinYMid meet" xmlns:xlink="http://www.w3.org/1999/xlink">
            <use xlink:href="#askoy"></use>
        </svg>
    </g>

    <g id="two-lines">
        <svg viewBox="0 -30 712 42" preserveAspectRatio="xMinYMid meet" xmlns:xlink="http://www.w3.org/1999/xlink">
            <use xlink:href="#fotballklubb" />
        </svg>

        <svg viewBox="0 30 712 55"  preserveAspectRatio="xMinYMid meet" xmlns:xlink="http://www.w3.org/1999/xlink">
            <use xlink:href="#askoy" />
        </svg>
    </g>




</svg>
