<?xml version="1.0" encoding="UTF-8" standalone="no"?>
<svg viewBox="0 0 652 213" version="1.1" xmlns="http://www.w3.org/2000/svg" xmlns:xlink="http://www.w3.org/1999/xlink">
    <title>Vitek Logo</title>
    <!-- <rect width="100%" height="100%" fill="#FBD03A"/> -->
    <g transform="translate(31.000000, 29.000000)">
        <path d="M113.017,30.138 C114.376,26.06 116.189,21.304 116.189,17.002 C116.189,9.527 111.884,5.451 106.224,2.052 L106.224,1.375 L146.763,1.375 L146.763,2.052 L94.445,155.16 C84.707,151.988 74.515,149.045 65.908,143.836 C53.451,136.361 50.054,130.019 45.072,116.656 L10.644,21.757 C7.927,13.832 5.435,7.716 -0.454,2.052 L-0.454,1.375 L50.734,1.375 L50.734,2.052 L50.507,3.185 C50.507,9.527 55.49,22.664 57.527,28.779 L86.292,112.127 L113.017,30.138"></path>
        <path d="M200.207,118.242 C200.207,130.019 198.621,142.703 209.718,149.722 L209.718,150.402 L148.794,150.402 L148.794,149.722 C159.892,142.703 158.306,130.019 158.306,118.242 L158.306,33.761 C158.306,21.984 159.892,9.074 148.794,2.052 L148.794,1.375 L209.718,1.375 L209.718,2.052 C198.621,9.074 200.207,21.984 200.207,33.761 L200.207,118.242"></path>
        <path d="M289.435,117.562 C289.435,130.47 289.664,140.664 299.4,149.722 L299.4,150.402 L238.021,150.402 L238.021,149.722 C249.121,142.703 247.535,129.793 247.535,118.015 L247.535,26.966 C243.683,26.06 240.287,26.06 236.21,26.06 C225.791,26.06 219.224,28.552 210.617,34.441 L209.031,35.574 L217.865,0.695 L222.167,1.375 L327.259,1.375 L319.558,35.574 C316.162,27.875 309.14,25.609 300.986,25.609 C296.908,25.609 293.287,25.836 289.435,26.966 L289.435,117.562"></path>
        <path d="M380.931,125.263 C388.404,128.207 396.783,128.66 404.71,128.66 C417.394,128.66 429.169,126.621 437.777,116.203 L438.912,116.203 L429.851,150.402 L329.515,150.402 L329.515,149.722 C340.615,142.703 339.029,130.019 339.029,118.242 L339.029,33.535 C339.029,21.757 340.615,8.849 329.515,2.052 L329.515,1.375 L408.787,1.375 C412.183,1.375 415.808,1.375 418.3,0.242 L418.978,0.242 L418.978,33.082 L418.3,33.082 C412.183,22.437 399.275,23.57 388.175,23.57 L380.931,23.57 L380.931,60.259 L401.992,60.259 C405.162,60.259 408.335,60.035 410.373,59.129 L411.505,59.129 L411.505,90.838 L410.373,90.838 C407.201,81.777 396.783,82.683 388.404,82.683 L380.931,82.683 L380.931,125.263"></path>
        <path d="M577.287,134.548 C580.91,140.437 585.212,145.873 590.421,149.722 L590.421,150.402 C538.105,150.402 534.708,150.402 519.759,124.584 L496.207,84.043 L496.207,118.015 C496.207,129.793 494.619,142.703 505.718,149.722 L505.718,150.402 L444.791,150.402 L444.791,149.722 C455.888,142.703 454.304,129.793 454.304,118.015 L454.304,33.761 C454.304,21.757 455.888,9.074 444.791,2.052 L444.791,1.375 L505.718,1.375 L505.718,2.052 C494.619,9.074 496.207,21.984 496.207,33.761 L496.207,68.414 L524.515,32.402 C528.363,27.646 534.933,20.853 534.933,14.283 C534.933,8.394 530.179,4.545 525.873,2.052 L525.873,1.375 L581.361,1.375 L581.361,2.052 L531.31,61.847 L577.287,134.548"></path>
    </g>
</svg>
